<svg width="44" height="44" viewBox="0 0 44 44" fill="none" xmlns="http://www.w3.org/2000/svg">
<path d="M16.5 9.1665H12.8333C10.8083 9.1665 9.16666 10.8081 9.16666 12.8332V34.8332C9.16666 36.8583 10.8083 38.4998 12.8333 38.4998H31.1667C33.1918 38.4998 34.8333 36.8583 34.8333 34.8332V12.8332C34.8333 10.8081 33.1918 9.1665 31.1667 9.1665H27.5" class="stroke" stroke-width="3" stroke-linecap="round" stroke-linejoin="round"/>
<path d="M22 22H27.5" class="stroke" stroke-width="3" stroke-linecap="round" stroke-linejoin="round"/>
<path d="M22 29.3335H27.5" class="stroke" stroke-width="3" stroke-linecap="round" stroke-linejoin="round"/>
<path d="M16.5 9.16667C16.5 7.14162 18.1416 5.5 20.1667 5.5H23.8333C25.8584 5.5 27.5 7.14162 27.5 9.16667V12.8333H16.5V9.16667Z" class="stroke" stroke-width="3" stroke-linecap="round" stroke-linejoin="round"/>
<path d="M16.5 23.8332C17.5125 23.8332 18.3333 23.0124 18.3333 21.9998C18.3333 20.9873 17.5125 20.1665 16.5 20.1665C15.4875 20.1665 14.6667 20.9873 14.6667 21.9998C14.6667 23.0124 15.4875 23.8332 16.5 23.8332Z" class="fill"/>
<path d="M16.5 31.1667C17.5125 31.1667 18.3333 30.3459 18.3333 29.3333C18.3333 28.3208 17.5125 27.5 16.5 27.5C15.4875 27.5 14.6667 28.3208 14.6667 29.3333C14.6667 30.3459 15.4875 31.1667 16.5 31.1667Z" class="fill"/>
</svg>
