<svg width="133" height="133" viewBox="0 0 133 133" fill="none" xmlns="http://www.w3.org/2000/svg">
<path d="M30.2944 103.999H41.3778V66.1306H30.2944V103.999ZM91.6222 103.999H102.706V26.4153H91.6222V103.999ZM60.9583 103.999H72.0417V82.2014H60.9583V103.999ZM60.9583 66.1306H72.0417V55.0472H60.9583V66.1306ZM11.0833 133C8.12778 133 5.54167 131.892 3.325 129.675C1.10833 127.458 0 124.872 0 121.917V11.0833C0 8.12778 1.10833 5.54167 3.325 3.325C5.54167 1.10833 8.12778 0 11.0833 0H121.917C124.872 0 127.458 1.10833 129.675 3.325C131.892 5.54167 133 8.12778 133 11.0833V121.917C133 124.872 131.892 127.458 129.675 129.675C127.458 131.892 124.872 133 121.917 133H11.0833ZM11.0833 121.917H121.917V11.0833H11.0833V121.917Z" fill="#9C5CFF"/>
</svg>
