<svg width="107" height="133" viewBox="0 0 107 133" fill="none" xmlns="http://www.w3.org/2000/svg">
<path d="M27.0126 104.738H79.9875V94.7625H27.0126V104.738ZM27.0126 76.475H79.9875V66.5H27.0126V76.475ZM10.7253 133C8.09299 133 5.78973 132.003 3.81552 130.008C1.8413 128.012 0.854187 125.685 0.854187 123.025V9.975C0.854187 7.315 1.8413 4.9875 3.81552 2.9925C5.78973 0.9975 8.09299 0 10.7253 0H70.1164L106.146 36.4088V123.025C106.146 125.685 105.159 128.012 103.185 130.008C101.21 132.003 98.9071 133 96.2748 133H10.7253ZM65.1808 40.8975V9.975H10.7253V123.025H96.2748V40.8975H65.1808Z" fill="#9C5CFF"/>
</svg>
