<svg width="50" height="50" viewBox="0 0 50 50" fill="none" xmlns="http://www.w3.org/2000/svg">
<path d="M39.5833 26.5625H16.6667C16.2523 26.5625 15.8548 26.3979 15.5618 26.1048C15.2688 25.8119 15.1042 25.4144 15.1042 25C15.1042 24.5856 15.2688 24.1881 15.5618 23.8952C15.8548 23.6021 16.2523 23.4375 16.6667 23.4375H39.5833C39.9977 23.4375 40.3952 23.6021 40.6881 23.8952C40.9812 24.1881 41.1458 24.5856 41.1458 25C41.1458 25.4144 40.9812 25.8119 40.6881 26.1048C40.3952 26.3979 39.9977 26.5625 39.5833 26.5625Z" class="fill"/>
<path d="M39.5833 17.1875H16.6667C16.2523 17.1875 15.8548 17.0229 15.5618 16.7299C15.2688 16.4368 15.1042 16.0394 15.1042 15.625C15.1042 15.2106 15.2688 14.8132 15.5618 14.5201C15.8548 14.2271 16.2523 14.0625 16.6667 14.0625H39.5833C39.9977 14.0625 40.3952 14.2271 40.6881 14.5201C40.9812 14.8132 41.1458 15.2106 41.1458 15.625C41.1458 16.0394 40.9812 16.4368 40.6881 16.7299C40.3952 17.0229 39.9977 17.1875 39.5833 17.1875Z" class="fill"/>
<path d="M39.5833 35.9375H16.6667C16.2523 35.9375 15.8548 35.7729 15.5618 35.4798C15.2688 35.1869 15.1042 34.7894 15.1042 34.375C15.1042 33.9606 15.2688 33.5631 15.5618 33.2702C15.8548 32.9771 16.2523 32.8125 16.6667 32.8125H39.5833C39.9977 32.8125 40.3952 32.9771 40.6881 33.2702C40.9812 33.5631 41.1458 33.9606 41.1458 34.375C41.1458 34.7894 40.9812 35.1869 40.6881 35.4798C40.3952 35.7729 39.9977 35.9375 39.5833 35.9375Z" class="fill"/>
<path d="M10.4167 17.7085C10.1458 17.7118 9.87694 17.6623 9.62504 17.5627C9.37609 17.4419 9.14479 17.2877 8.93754 17.1044C8.74446 16.9097 8.59169 16.6788 8.48802 16.425C8.38434 16.1712 8.33179 15.8994 8.33338 15.6252C8.34104 15.0736 8.55684 14.5453 8.93754 14.146C9.13311 13.9531 9.36744 13.804 9.62504 13.7085C10.1323 13.5002 10.7012 13.5002 11.2084 13.7085C11.4641 13.8077 11.6977 13.9564 11.8959 14.146C12.2766 14.5453 12.4924 15.0736 12.5 15.6252C12.5016 15.8994 12.4491 16.1712 12.3454 16.425C12.2417 16.6788 12.089 16.9097 11.8959 17.1044C11.6886 17.2877 11.4573 17.4419 11.2084 17.5627C10.9565 17.6623 10.6876 17.7118 10.4167 17.7085Z" class="fill"/>
<path d="M10.4167 27.0835C10.1445 27.0801 9.8755 27.0235 9.62504 26.9168C9.37257 26.8112 9.14004 26.6632 8.93754 26.4793C8.74446 26.2845 8.59169 26.0537 8.48802 25.7999C8.38434 25.5459 8.33179 25.2743 8.33338 25.0001C8.34104 24.4485 8.55684 23.9201 8.93754 23.521C9.14004 23.3368 9.37257 23.1889 9.62504 23.0835C10.0022 22.9085 10.423 22.8505 10.8334 22.9168L11.2084 23.0418L11.5834 23.2293C11.6925 23.3062 11.7969 23.3897 11.8959 23.4793C12.2864 23.8889 12.503 24.4341 12.5 25.0001C12.5 25.5526 12.2805 26.0824 11.8898 26.4732C11.4991 26.8639 10.9692 27.0835 10.4167 27.0835Z" class="fill"/>
<path d="M10.4166 36.4583C10.1458 36.4616 9.87687 36.412 9.62497 36.3125C9.37601 36.1916 9.14472 36.0375 8.93747 35.8541C8.75345 35.6516 8.60547 35.4191 8.49997 35.1666C8.38974 34.9172 8.33282 34.6477 8.33282 34.375C8.33282 34.1022 8.38974 33.8327 8.49997 33.5833C8.60547 33.3308 8.75345 33.0983 8.93747 32.8958C9.23043 32.6068 9.60247 32.411 10.0066 32.3331C10.4107 32.2552 10.8289 32.2987 11.2083 32.4583C11.464 32.5575 11.6977 32.7062 11.8958 32.8958C12.0798 33.0983 12.2278 33.3308 12.3333 33.5833C12.4435 33.8327 12.5004 34.1022 12.5004 34.375C12.5004 34.6477 12.4435 34.9172 12.3333 35.1666C12.2278 35.4191 12.0798 35.6516 11.8958 35.8541C11.7011 36.0472 11.4703 36.2 11.2164 36.3037C10.9626 36.4075 10.6908 36.46 10.4166 36.4583Z" class="fill"/>
</svg>
