<svg width="133" height="133" viewBox="0 0 133 133" fill="none" xmlns="http://www.w3.org/2000/svg">
<path d="M62.0113 99.75H71.9863V59.85H62.0113V99.75ZM66.497 47.5475C68.0507 47.5475 69.354 47.0377 70.4069 46.018C71.4598 44.9983 71.9863 43.7348 71.9863 42.2275C71.9863 40.626 71.4608 39.2835 70.4099 38.2001C69.3588 37.1167 68.0565 36.575 66.503 36.575C64.9493 36.575 63.646 37.1167 62.5931 38.2001C61.5402 39.2835 61.0138 40.626 61.0138 42.2275C61.0138 43.7348 61.5392 44.9983 62.5901 46.018C63.6412 47.0377 64.9435 47.5475 66.497 47.5475ZM66.5442 133C57.3745 133 48.7572 131.254 40.6923 127.763C32.6274 124.272 25.5748 119.506 19.5344 113.466C13.494 107.425 8.72813 100.368 5.23688 92.2952C1.74563 84.2221 0 75.596 0 66.4169C0 57.2378 1.74563 48.6117 5.23688 40.5386C8.72813 32.4654 13.494 25.4363 19.5344 19.4513C25.5748 13.4663 32.6316 8.72813 40.7048 5.23688C48.7779 1.74563 57.404 0 66.5831 0C75.7622 0 84.3883 1.74563 92.4614 5.23688C100.535 8.72813 107.564 13.4663 113.549 19.4513C119.534 25.4363 124.272 32.4742 127.763 40.565C131.254 48.6558 133 57.2861 133 66.4558C133 75.6255 131.254 84.2428 127.763 92.3077C124.272 100.373 119.534 107.415 113.549 113.435C107.564 119.455 100.526 124.221 92.435 127.733C84.3442 131.244 75.7139 133 66.5442 133ZM66.5831 123.025C82.266 123.025 95.5938 117.511 106.566 106.483C117.539 95.4552 123.025 82.0998 123.025 66.4169C123.025 50.734 117.549 37.4062 106.598 26.4338C95.6457 15.4613 82.2799 9.975 66.5 9.975C50.8725 9.975 37.5448 15.4508 26.5169 26.4025C15.489 37.3543 9.975 50.7201 9.975 66.5C9.975 82.1275 15.489 95.4552 26.5169 106.483C37.5448 117.511 50.9002 123.025 66.5831 123.025Z" fill="#9C5CFF"/>
</svg>
