<svg width="123" height="133" viewBox="0 0 123 133" fill="none" xmlns="http://www.w3.org/2000/svg">
<path d="M54.6517 133C39.0951 129.458 26.1876 120.796 15.9292 107.014C5.67087 93.2328 0.541687 77.4311 0.541687 59.6092V19.9251L54.6517 0L108.762 19.9251V64.7566C107.184 63.9817 105.493 63.2898 103.689 62.681C101.885 62.0722 100.194 61.6571 98.6161 61.4357V26.8989L54.6517 10.9588L10.6873 26.8989V59.6092C10.6873 68.0221 12.0683 75.7707 14.8301 82.8552C17.592 89.9397 21.1148 96.1663 25.3985 101.535C29.6822 106.904 34.4168 111.359 39.6024 114.901C44.7879 118.444 49.8044 120.99 54.6517 122.539C55.3281 123.868 56.3427 125.362 57.6954 127.022C59.0482 128.683 60.1755 129.956 61.0773 130.841C60.0627 131.395 58.9918 131.81 57.8645 132.087C56.7372 132.364 55.6663 132.668 54.6517 133ZM90.5842 133C81.8476 133 74.3793 129.928 68.1792 123.785C61.9791 117.641 58.8791 110.363 58.8791 101.95C58.8791 93.2677 61.9786 85.8667 68.1775 79.7472C74.3765 73.6278 81.8736 70.568 90.6687 70.568C99.3489 70.568 106.817 73.6278 113.074 79.7472C119.33 85.8667 122.458 93.2677 122.458 101.95C122.458 110.363 119.33 117.641 113.074 123.785C106.817 129.928 99.3207 133 90.5842 133ZM88.1323 123.037H93.7124V104.773H112.313V99.2934H93.7124V81.0287H88.1323V99.2934H69.532V104.773H88.1323V123.037Z" fill="#9C5CFF"/>
</svg>
