<svg width="44" height="44" viewBox="0 0 44 44" fill="none" xmlns="http://www.w3.org/2000/svg">
<path d="M19.2891 6.6436C20.7436 5.04653 23.2564 5.04653 24.711 6.6436L26.0594 8.1242C26.7944 8.93135 27.8509 9.36898 28.9414 9.31802L30.9419 9.22453C33.0996 9.12368 34.8766 10.9006 34.7756 13.0584L34.6823 15.0588C34.6313 16.1493 35.0689 17.2058 35.876 17.9409L37.3566 19.2892C38.9538 20.7438 38.9538 23.2566 37.3566 24.7111L35.876 26.0596C35.0689 26.7945 34.6313 27.8511 34.6823 28.9416L34.7756 30.9421C34.8766 33.0997 33.0996 34.8768 30.9419 34.7758L28.9414 34.6825C27.8509 34.6315 26.7944 35.0691 26.0594 35.8761L24.711 37.3567C23.2564 38.9539 20.7436 38.9539 19.2891 37.3567L17.9407 35.8761C17.2056 35.0691 16.1491 34.6315 15.0586 34.6825L13.0582 34.7758C10.9004 34.8768 9.1235 33.0997 9.22435 30.9421L9.31783 28.9416C9.3688 27.8511 8.93116 26.7945 8.12402 26.0596L6.64342 24.7111C5.04635 23.2566 5.04635 20.7438 6.64342 19.2892L8.12402 17.9409C8.93116 17.2058 9.3688 16.1493 9.31783 15.0588L9.22435 13.0584C9.1235 10.9006 10.9004 9.12368 13.0582 9.22453L15.0586 9.31802C16.1491 9.36898 17.2056 8.93135 17.9407 8.1242L19.2891 6.6436Z" class="stroke" stroke-width="3"/>
<path d="M22 27.5C25.0376 27.5 27.5 25.0376 27.5 22C27.5 18.9624 25.0376 16.5 22 16.5C18.9624 16.5 16.5 18.9624 16.5 22C16.5 25.0376 18.9624 27.5 22 27.5Z"  class="stroke" stroke-width="3"/>
</svg>
