<svg width="81" height="81" viewBox="0 0 81 81" fill="none" xmlns="http://www.w3.org/2000/svg">
<path d="M74.0944 0.715091C74.0944 0.715091 81.5875 -2.79105 80.963 5.72387C80.7549 9.23006 78.8817 21.5015 77.4247 34.7749L72.4293 74.0939C72.4293 74.0939 72.0131 79.8539 68.2665 80.8558C64.5198 81.8574 58.9002 77.3496 57.8593 76.3478C57.0267 75.5965 42.2489 64.3267 37.0452 58.8171C35.5881 57.3144 33.923 54.3091 37.2533 50.8029L59.1082 25.7591C61.6059 22.7538 64.1036 15.7415 53.6965 24.2565L24.5567 48.0482C24.5567 48.0482 21.2265 50.5525 14.9823 48.2986L1.45303 43.2898C1.45303 43.2898 -3.54238 39.5333 4.99144 35.7765C25.8057 24.0058 51.4071 11.9848 74.0944 0.715091Z" fill="white"/>
</svg>
